<svg width="130" height="33" viewBox="0 0 130 33" fill="none" xmlns="http://www.w3.org/2000/svg">
<g filter="url(#filter0_d_1_925)">
<g clip-path="url(#clip0_1_925)">
<path d="M33.472 18.24C32.6187 18.24 31.848 18.0907 31.16 17.792C30.4773 17.488 29.9147 17.056 29.472 16.496C29.0347 15.9307 28.7573 15.2587 28.64 14.48L30.912 14.144C31.072 14.8053 31.4027 15.3147 31.904 15.672C32.4053 16.0293 32.976 16.208 33.616 16.208C33.9733 16.208 34.32 16.152 34.656 16.04C34.992 15.928 35.2667 15.7627 35.48 15.544C35.6987 15.3253 35.808 15.056 35.808 14.736C35.808 14.6187 35.7893 14.5067 35.752 14.4C35.72 14.288 35.664 14.184 35.584 14.088C35.504 13.992 35.3893 13.9013 35.24 13.816C35.096 13.7307 34.912 13.6533 34.688 13.584L31.696 12.704C31.472 12.64 31.2107 12.5493 30.912 12.432C30.6187 12.3147 30.3333 12.1467 30.056 11.928C29.7787 11.7093 29.5467 11.4213 29.36 11.064C29.1787 10.7013 29.088 10.2453 29.088 9.696C29.088 8.92267 29.2827 8.28 29.672 7.768C30.0613 7.256 30.5813 6.87467 31.232 6.624C31.8827 6.37333 32.6027 6.25067 33.392 6.256C34.1867 6.26667 34.896 6.40267 35.52 6.664C36.144 6.92533 36.6667 7.30667 37.088 7.808C37.5093 8.304 37.8133 8.912 38 9.632L35.648 10.032C35.5627 9.65867 35.4053 9.344 35.176 9.088C34.9467 8.832 34.672 8.63733 34.352 8.504C34.0373 8.37067 33.7067 8.29867 33.36 8.288C33.0187 8.27733 32.696 8.32533 32.392 8.432C32.0933 8.53333 31.848 8.68267 31.656 8.88C31.4693 9.07733 31.376 9.312 31.376 9.584C31.376 9.83467 31.4533 10.04 31.608 10.2C31.7627 10.3547 31.9573 10.48 32.192 10.576C32.4267 10.672 32.6667 10.752 32.912 10.816L34.912 11.36C35.2107 11.44 35.5413 11.5467 35.904 11.68C36.2667 11.808 36.6133 11.9893 36.944 12.224C37.28 12.4533 37.5547 12.7573 37.768 13.136C37.9867 13.5147 38.096 13.9947 38.096 14.576C38.096 15.1947 37.9653 15.736 37.704 16.2C37.448 16.6587 37.1013 17.04 36.664 17.344C36.2267 17.6427 35.7307 17.8667 35.176 18.016C34.6267 18.1653 34.0587 18.24 33.472 18.24ZM39.8544 18V6.48H47.3744V8.512H42.0304V10.976H46.4144V13.008H42.0304V15.968H47.3744V18H39.8544ZM49.2919 18V6.48H54.1559C54.2679 6.48 54.4172 6.48533 54.6039 6.496C54.7959 6.50133 54.9665 6.51733 55.1159 6.544C55.8039 6.65067 56.3665 6.87733 56.8039 7.224C57.2465 7.57067 57.5719 8.008 57.7799 8.536C57.9879 9.05867 58.0919 9.64267 58.0919 10.288C58.0919 11.2533 57.8519 12.08 57.3719 12.768C56.8919 13.4507 56.1399 13.872 55.1159 14.032L54.1559 14.096H51.4679V18H49.2919ZM55.7879 18L53.5159 13.312L55.7559 12.88L58.2519 18H55.7879ZM51.4679 12.064H54.0599C54.1719 12.064 54.2945 12.0587 54.4279 12.048C54.5612 12.0373 54.6839 12.016 54.7959 11.984C55.0892 11.904 55.3159 11.7707 55.4759 11.584C55.6359 11.392 55.7452 11.1813 55.8039 10.952C55.8679 10.7173 55.8999 10.496 55.8999 10.288C55.8999 10.08 55.8679 9.86133 55.8039 9.632C55.7452 9.39733 55.6359 9.18667 55.4759 9C55.3159 8.808 55.0892 8.672 54.7959 8.592C54.6839 8.56 54.5612 8.53867 54.4279 8.528C54.2945 8.51733 54.1719 8.512 54.0599 8.512H51.4679V12.064ZM62.4906 18L58.9706 6.48H61.2106L64.0906 15.952L67.0186 6.48H69.2586L65.7386 18H62.4906ZM70.6238 18V6.48H72.7998V18H70.6238ZM79.5501 18.24C78.6968 18.24 77.9261 18.0907 77.2381 17.792C76.5555 17.488 75.9928 17.056 75.5501 16.496C75.1128 15.9307 74.8355 15.2587 74.7181 14.48L76.9901 14.144C77.1501 14.8053 77.4808 15.3147 77.9821 15.672C78.4835 16.0293 79.0541 16.208 79.6941 16.208C80.0515 16.208 80.3981 16.152 80.7341 16.04C81.0701 15.928 81.3448 15.7627 81.5581 15.544C81.7768 15.3253 81.8861 15.056 81.8861 14.736C81.8861 14.6187 81.8675 14.5067 81.8301 14.4C81.7981 14.288 81.7421 14.184 81.6621 14.088C81.5821 13.992 81.4675 13.9013 81.3181 13.816C81.1741 13.7307 80.9901 13.6533 80.7661 13.584L77.7741 12.704C77.5501 12.64 77.2888 12.5493 76.9901 12.432C76.6968 12.3147 76.4115 12.1467 76.1341 11.928C75.8568 11.7093 75.6248 11.4213 75.4381 11.064C75.2568 10.7013 75.1661 10.2453 75.1661 9.696C75.1661 8.92267 75.3608 8.28 75.7501 7.768C76.1395 7.256 76.6595 6.87467 77.3101 6.624C77.9608 6.37333 78.6808 6.25067 79.4701 6.256C80.2648 6.26667 80.9741 6.40267 81.5981 6.664C82.2221 6.92533 82.7448 7.30667 83.1661 7.808C83.5875 8.304 83.8915 8.912 84.0781 9.632L81.7261 10.032C81.6408 9.65867 81.4835 9.344 81.2541 9.088C81.0248 8.832 80.7501 8.63733 80.4301 8.504C80.1155 8.37067 79.7848 8.29867 79.4381 8.288C79.0968 8.27733 78.7741 8.32533 78.4701 8.432C78.1715 8.53333 77.9261 8.68267 77.7341 8.88C77.5475 9.07733 77.4541 9.312 77.4541 9.584C77.4541 9.83467 77.5315 10.04 77.6861 10.2C77.8408 10.3547 78.0355 10.48 78.2701 10.576C78.5048 10.672 78.7448 10.752 78.9901 10.816L80.9901 11.36C81.2888 11.44 81.6195 11.5467 81.9821 11.68C82.3448 11.808 82.6915 11.9893 83.0221 12.224C83.3581 12.4533 83.6328 12.7573 83.8461 13.136C84.0648 13.5147 84.1741 13.9947 84.1741 14.576C84.1741 15.1947 84.0435 15.736 83.7821 16.2C83.5261 16.6587 83.1795 17.04 82.7421 17.344C82.3048 17.6427 81.8088 17.8667 81.2541 18.016C80.7048 18.1653 80.1368 18.24 79.5501 18.24ZM85.7725 13.072V11.392H90.5725V13.072H85.7725ZM91.6913 18L95.5633 12.176L91.8033 6.48H94.4753L96.9233 10.32L99.3393 6.48H102.027L98.2673 12.176L102.123 18H99.4513L96.9233 14.032L94.3793 18H91.6913Z" fill="black"/>
</g>
<rect x="4.5" y="0.5" width="121" height="23.7089" stroke="black" shape-rendering="crispEdges"/>
</g>
<defs>
<filter id="filter0_d_1_925" x="0" y="0" width="130" height="32.7087" filterUnits="userSpaceOnUse" color-interpolation-filters="sRGB">
<feFlood flood-opacity="0" result="BackgroundImageFix"/>
<feColorMatrix in="SourceAlpha" type="matrix" values="0 0 0 0 0 0 0 0 0 0 0 0 0 0 0 0 0 0 127 0" result="hardAlpha"/>
<feOffset dy="4"/>
<feGaussianBlur stdDeviation="2"/>
<feComposite in2="hardAlpha" operator="out"/>
<feColorMatrix type="matrix" values="0 0 0 0 0 0 0 0 0 0 0 0 0 0 0 0 0 0 0.25 0"/>
<feBlend mode="normal" in2="BackgroundImageFix" result="effect1_dropShadow_1_925"/>
<feBlend mode="normal" in="SourceGraphic" in2="effect1_dropShadow_1_925" result="shape"/>
</filter>
<clipPath id="clip0_1_925">
<rect x="4" width="122" height="24.7089" fill="white"/>
</clipPath>
</defs>
</svg>
